<svg id="visual" viewBox="0 0 2560 1375" width="2560" height="1375" xmlns="http://www.w3.org/2000/svg" xmlns:xlink="http://www.w3.org/1999/xlink" version="1.1"><rect width="2560" height="1375" fill="#0c8600"></rect><g><g transform="translate(503 525)"><path d="M0 -160.4L152.5 -49.6L94.3 129.8L-94.3 129.8L-152.5 -49.6Z" fill="#2ccf16"></path></g><g transform="translate(194 217)"><path d="M0 -55L52.3 -17L32.3 44.5L-32.3 44.5L-52.3 -17Z" fill="#2ccf16"></path></g><g transform="translate(2383 1001)"><path d="M0 -109L103.7 -33.7L64.1 88.2L-64.1 88.2L-103.7 -33.7Z" fill="#2ccf16"></path></g><g transform="translate(1594 139)"><path d="M0 -46L43.7 -14.2L27 37.2L-27 37.2L-43.7 -14.2Z" fill="#2ccf16"></path></g><g transform="translate(1128 1029)"><path d="M0 -67L63.7 -20.7L39.4 54.2L-39.4 54.2L-63.7 -20.7Z" fill="#2ccf16"></path></g><g transform="translate(333 1234)"><path d="M0 -93L88.4 -28.7L54.7 75.2L-54.7 75.2L-88.4 -28.7Z" fill="#2ccf16"></path></g><g transform="translate(1448 1070)"><path d="M0 -103L98 -31.8L60.5 83.3L-60.5 83.3L-98 -31.8Z" fill="#2ccf16"></path></g><g transform="translate(2203 614)"><path d="M0 -61L58 -18.9L35.9 49.4L-35.9 49.4L-58 -18.9Z" fill="#2ccf16"></path></g><g transform="translate(1977 1330)"><path d="M0 -143L136 -44.2L84.1 115.7L-84.1 115.7L-136 -44.2Z" fill="#2ccf16"></path></g><g transform="translate(2256 248)"><path d="M0 -146L138.9 -45.1L85.8 118.1L-85.8 118.1L-138.9 -45.1Z" fill="#2ccf16"></path></g><g transform="translate(1036 331)"><path d="M0 -157L149.3 -48.5L92.3 127L-92.3 127L-149.3 -48.5Z" fill="#2ccf16"></path></g><g transform="translate(104 794)"><path d="M0 -116L110.3 -35.8L68.2 93.8L-68.2 93.8L-110.3 -35.8Z" fill="#2ccf16"></path></g><g transform="translate(1143 24)"><path d="M0 -132L125.5 -40.8L77.6 106.8L-77.6 106.8L-125.5 -40.8Z" fill="#2ccf16"></path></g><g transform="translate(1521 572)"><path d="M0 -108L102.7 -33.4L63.5 87.4L-63.5 87.4L-102.7 -33.4Z" fill="#2ccf16"></path></g><g transform="translate(783 75)"><path d="M0 -93L88.4 -28.7L54.7 75.2L-54.7 75.2L-88.4 -28.7Z" fill="#2ccf16"></path></g><g transform="translate(1889 716)"><path d="M0 -42L39.9 -13L24.7 34L-24.7 34L-39.9 -13Z" fill="#2ccf16"></path></g><g transform="translate(1127 682)"><path d="M0 -109L103.7 -33.7L64.1 88.2L-64.1 88.2L-103.7 -33.7Z" fill="#2ccf16"></path></g><g transform="translate(840 879)"><path d="M0 -158L150.3 -48.8L92.9 127.8L-92.9 127.8L-150.3 -48.8Z" fill="#2ccf16"></path></g><g transform="translate(827 1214)"><path d="M0 -41L39 -12.7L24.1 33.2L-24.1 33.2L-39 -12.7Z" fill="#2ccf16"></path></g><g transform="translate(1981 68)"><path d="M0 -122L116 -37.7L71.7 98.7L-71.7 98.7L-116 -37.7Z" fill="#2ccf16"></path></g><g transform="translate(21 1356)"><path d="M0 -145L137.9 -44.8L85.2 117.3L-85.2 117.3L-137.9 -44.8Z" fill="#2ccf16"></path></g><g transform="translate(2391 1348)"><path d="M0 -55L52.3 -17L32.3 44.5L-32.3 44.5L-52.3 -17Z" fill="#2ccf16"></path></g><g transform="translate(1860 383)"><path d="M0 -95L90.4 -29.4L55.8 76.9L-55.8 76.9L-90.4 -29.4Z" fill="#2ccf16"></path></g><g transform="translate(2544 422)"><path d="M0 -90L85.6 -27.8L52.9 72.8L-52.9 72.8L-85.6 -27.8Z" fill="#2ccf16"></path></g><g transform="translate(1640 1340)"><path d="M0 -76L72.3 -23.5L44.7 61.5L-44.7 61.5L-72.3 -23.5Z" fill="#2ccf16"></path></g><g transform="translate(2528 60)"><path d="M0 -45L42.8 -13.9L26.5 36.4L-26.5 36.4L-42.8 -13.9Z" fill="#2ccf16"></path></g><g transform="translate(1161 1371)"><path d="M0 -128L121.7 -39.6L75.2 103.6L-75.2 103.6L-121.7 -39.6Z" fill="#2ccf16"></path></g><g transform="translate(433 927)"><path d="M0 -128L121.7 -39.6L75.2 103.6L-75.2 103.6L-121.7 -39.6Z" fill="#2ccf16"></path></g><g transform="translate(1793 1047)"><path d="M0 -125L118.9 -38.6L73.5 101.1L-73.5 101.1L-118.9 -38.6Z" fill="#2ccf16"></path></g></g></svg>