<svg id="visual" viewBox="0 0 2560 1375" width="2560" height="1375" xmlns="http://www.w3.org/2000/svg" xmlns:xlink="http://www.w3.org/1999/xlink" version="1.1"><g stroke-width="1" stroke-linejoin="bevel"><path d="M1222.7 597.1L1356.3 587.1L1399.3 448.3Z" fill="#29c714" stroke="#29c714"></path><path d="M1399.3 448.3L1163.7 433.3L1222.7 597.1Z" fill="#1caa0a" stroke="#1caa0a"></path><path d="M1399.3 448.3L1198.7 296.6L1163.7 433.3Z" fill="#139403" stroke="#139403"></path><path d="M1399.3 448.3L1326.3 264.6L1198.7 296.6Z" fill="#169b05" stroke="#169b05"></path><path d="M997 271.6L1045 498.3L1163.7 433.3Z" fill="#22b90f" stroke="#22b90f"></path><path d="M1163.7 433.3L1045 498.3L1222.7 597.1Z" fill="#1fb10d" stroke="#1fb10d"></path><path d="M1356.3 587.1L1521 477.3L1399.3 448.3Z" fill="#169b05" stroke="#169b05"></path><path d="M1399.3 448.3L1564 338.6L1326.3 264.6Z" fill="#22b90f" stroke="#22b90f"></path><path d="M1045 498.3L1008 599.1L1222.7 597.1Z" fill="#19a307" stroke="#19a307"></path><path d="M1527 141.8L1326.3 184.8L1326.3 264.6Z" fill="#139403" stroke="#139403"></path><path d="M1326.3 264.6L1326.3 184.8L1198.7 296.6Z" fill="#1fb10d" stroke="#1fb10d"></path><path d="M1382.3 793.9L1570 622.1L1356.3 587.1Z" fill="#26c011" stroke="#26c011"></path><path d="M1356.3 587.1L1570 622.1L1521 477.3Z" fill="#1fb10d" stroke="#1fb10d"></path><path d="M1382.3 793.9L1356.3 587.1L1222.7 597.1Z" fill="#29c714" stroke="#29c714"></path><path d="M1721.7 479.3L1564 338.6L1521 477.3Z" fill="#139403" stroke="#139403"></path><path d="M1521 477.3L1564 338.6L1399.3 448.3Z" fill="#1fb10d" stroke="#1fb10d"></path><path d="M1166.7 798.9L1382.3 793.9L1222.7 597.1Z" fill="#0c8600" stroke="#0c8600"></path><path d="M1030 742.9L1166.7 798.9L1222.7 597.1Z" fill="#169b05" stroke="#169b05"></path><path d="M1049 139.8L997 271.6L1198.7 296.6Z" fill="#26c011" stroke="#26c011"></path><path d="M1198.7 296.6L997 271.6L1163.7 433.3Z" fill="#19a307" stroke="#19a307"></path><path d="M1045 498.3L848.3 445.3L1008 599.1Z" fill="#169b05" stroke="#169b05"></path><path d="M1008 599.1L1030 742.9L1222.7 597.1Z" fill="#1fb10d" stroke="#1fb10d"></path><path d="M1326.3 184.8L1180.7 124.8L1198.7 296.6Z" fill="#0f8d01" stroke="#0f8d01"></path><path d="M1382.3 793.9L1546 779.9L1570 622.1Z" fill="#139403" stroke="#139403"></path><path d="M1227.7 911.7L1382.3 793.9L1166.7 798.9Z" fill="#139403" stroke="#139403"></path><path d="M1227.7 911.7L1354.3 888.7L1382.3 793.9Z" fill="#26c011" stroke="#26c011"></path><path d="M1382.3 793.9L1566 939.7L1546 779.9Z" fill="#1caa0a" stroke="#1caa0a"></path><path d="M1180.7 124.8L1049 139.8L1198.7 296.6Z" fill="#1fb10d" stroke="#1fb10d"></path><path d="M1564 338.6L1527 141.8L1326.3 264.6Z" fill="#0c8600" stroke="#0c8600"></path><path d="M1326.3 184.8L1335.3 0L1180.7 124.8Z" fill="#139403" stroke="#139403"></path><path d="M1029 924.7L1227.7 911.7L1166.7 798.9Z" fill="#2ccf16" stroke="#2ccf16"></path><path d="M856.3 294.6L848.3 445.3L997 271.6Z" fill="#1caa0a" stroke="#1caa0a"></path><path d="M997 271.6L848.3 445.3L1045 498.3Z" fill="#1fb10d" stroke="#1fb10d"></path><path d="M1008 599.1L840.3 751.9L1030 742.9Z" fill="#1fb10d" stroke="#1fb10d"></path><path d="M1696.7 636.1L1721.7 479.3L1570 622.1Z" fill="#22b90f" stroke="#22b90f"></path><path d="M1570 622.1L1721.7 479.3L1521 477.3Z" fill="#29c714" stroke="#29c714"></path><path d="M1564 338.6L1695.7 167.8L1527 141.8Z" fill="#1fb10d" stroke="#1fb10d"></path><path d="M1687.7 740.9L1696.7 636.1L1570 622.1Z" fill="#2ccf16" stroke="#2ccf16"></path><path d="M1721.7 479.3L1708.7 315.6L1564 338.6Z" fill="#26c011" stroke="#26c011"></path><path d="M822.3 188.8L856.3 294.6L997 271.6Z" fill="#19a307" stroke="#19a307"></path><path d="M1546 779.9L1687.7 740.9L1570 622.1Z" fill="#169b05" stroke="#169b05"></path><path d="M1839.3 605.1L1841.3 446.3L1721.7 479.3Z" fill="#0f8d01" stroke="#0f8d01"></path><path d="M1695.7 881.7L1687.7 740.9L1546 779.9Z" fill="#1fb10d" stroke="#1fb10d"></path><path d="M708.7 421.3L816.3 636.1L848.3 445.3Z" fill="#29c714" stroke="#29c714"></path><path d="M848.3 445.3L816.3 636.1L1008 599.1Z" fill="#19a307" stroke="#19a307"></path><path d="M1030 742.9L1029 924.7L1166.7 798.9Z" fill="#29c714" stroke="#29c714"></path><path d="M1527 141.8L1335.3 0L1326.3 184.8Z" fill="#19a307" stroke="#19a307"></path><path d="M1180.7 124.8L1189.7 0L1049 139.8Z" fill="#1caa0a" stroke="#1caa0a"></path><path d="M1335.3 0L1189.7 0L1180.7 124.8Z" fill="#29c714" stroke="#29c714"></path><path d="M1049 139.8L822.3 188.8L997 271.6Z" fill="#26c011" stroke="#26c011"></path><path d="M840.3 751.9L1029 924.7L1030 742.9Z" fill="#22b90f" stroke="#22b90f"></path><path d="M816.3 636.1L840.3 751.9L1008 599.1Z" fill="#26c011" stroke="#26c011"></path><path d="M1708.7 315.6L1695.7 167.8L1564 338.6Z" fill="#0f8d01" stroke="#0f8d01"></path><path d="M1527 141.8L1555 0L1335.3 0Z" fill="#0c8600" stroke="#0c8600"></path><path d="M1499 1029.4L1566 939.7L1354.3 888.7Z" fill="#22b90f" stroke="#22b90f"></path><path d="M1354.3 888.7L1566 939.7L1382.3 793.9Z" fill="#0f8d01" stroke="#0f8d01"></path><path d="M1499 1029.4L1354.3 888.7L1393.3 1106.4Z" fill="#2ccf16" stroke="#2ccf16"></path><path d="M861.3 0L822.3 188.8L1049 139.8Z" fill="#1caa0a" stroke="#1caa0a"></path><path d="M856.3 294.6L708.7 421.3L848.3 445.3Z" fill="#2ccf16" stroke="#2ccf16"></path><path d="M1189.7 0L1012 0L1049 139.8Z" fill="#169b05" stroke="#169b05"></path><path d="M1695.7 167.8L1555 0L1527 141.8Z" fill="#29c714" stroke="#29c714"></path><path d="M1839.3 605.1L1721.7 479.3L1696.7 636.1Z" fill="#1caa0a" stroke="#1caa0a"></path><path d="M1721.7 479.3L1841.3 446.3L1708.7 315.6Z" fill="#22b90f" stroke="#22b90f"></path><path d="M1708.7 315.6L1843.3 180.8L1695.7 167.8Z" fill="#169b05" stroke="#169b05"></path><path d="M1875.3 784.9L1839.3 605.1L1687.7 740.9Z" fill="#0f8d01" stroke="#0f8d01"></path><path d="M1687.7 740.9L1839.3 605.1L1696.7 636.1Z" fill="#169b05" stroke="#169b05"></path><path d="M1566 939.7L1695.7 881.7L1546 779.9Z" fill="#26c011" stroke="#26c011"></path><path d="M671.7 307.6L708.7 421.3L856.3 294.6Z" fill="#0c8600" stroke="#0c8600"></path><path d="M714.7 895.7L825.3 895.7L840.3 751.9Z" fill="#22b90f" stroke="#22b90f"></path><path d="M1841.3 446.3L1839.3 320.6L1708.7 315.6Z" fill="#0c8600" stroke="#0c8600"></path><path d="M1695.7 167.8L1728.7 0L1555 0Z" fill="#1fb10d" stroke="#1fb10d"></path><path d="M1393.3 1106.4L1354.3 888.7L1227.7 911.7Z" fill="#19a307" stroke="#19a307"></path><path d="M1566 939.7L1728.7 1034.4L1695.7 881.7Z" fill="#29c714" stroke="#29c714"></path><path d="M1056 1081.4L1174.7 1090.4L1029 924.7Z" fill="#2ccf16" stroke="#2ccf16"></path><path d="M1029 924.7L1174.7 1090.4L1227.7 911.7Z" fill="#26c011" stroke="#26c011"></path><path d="M674.7 791.9L840.3 751.9L816.3 636.1Z" fill="#26c011" stroke="#26c011"></path><path d="M840.3 751.9L825.3 895.7L1029 924.7Z" fill="#0f8d01" stroke="#0f8d01"></path><path d="M1174.7 1090.4L1393.3 1106.4L1227.7 911.7Z" fill="#29c714" stroke="#29c714"></path><path d="M832.3 1043.4L1056 1081.4L1029 924.7Z" fill="#19a307" stroke="#19a307"></path><path d="M822.3 188.8L671.7 307.6L856.3 294.6Z" fill="#1caa0a" stroke="#1caa0a"></path><path d="M708.7 421.3L642.7 636.1L816.3 636.1Z" fill="#19a307" stroke="#19a307"></path><path d="M700.7 185.8L671.7 307.6L822.3 188.8Z" fill="#139403" stroke="#139403"></path><path d="M2023 285.6L1843.3 180.8L1839.3 320.6Z" fill="#169b05" stroke="#169b05"></path><path d="M1839.3 320.6L1843.3 180.8L1708.7 315.6Z" fill="#29c714" stroke="#29c714"></path><path d="M1012 0L861.3 0L1049 139.8Z" fill="#169b05" stroke="#169b05"></path><path d="M711.7 0L700.7 185.8L822.3 188.8Z" fill="#139403" stroke="#139403"></path><path d="M505 428.3L642.7 636.1L708.7 421.3Z" fill="#2ccf16" stroke="#2ccf16"></path><path d="M1843.3 180.8L1728.7 0L1695.7 167.8Z" fill="#139403" stroke="#139403"></path><path d="M1695.7 881.7L1875.3 784.9L1687.7 740.9Z" fill="#169b05" stroke="#169b05"></path><path d="M1839.3 605.1L2032 441.3L1841.3 446.3Z" fill="#0f8d01" stroke="#0f8d01"></path><path d="M1841.3 446.3L2032 441.3L1839.3 320.6Z" fill="#2ccf16" stroke="#2ccf16"></path><path d="M1855.3 909.7L1875.3 784.9L1695.7 881.7Z" fill="#139403" stroke="#139403"></path><path d="M1728.7 1034.4L1566 939.7L1499 1029.4Z" fill="#19a307" stroke="#19a307"></path><path d="M642.7 636.1L674.7 791.9L816.3 636.1Z" fill="#1fb10d" stroke="#1fb10d"></path><path d="M825.3 895.7L832.3 1043.4L1029 924.7Z" fill="#0f8d01" stroke="#0f8d01"></path><path d="M674.7 791.9L714.7 895.7L840.3 751.9Z" fill="#19a307" stroke="#19a307"></path><path d="M1668.7 1203.2L1728.7 1034.4L1499 1029.4Z" fill="#22b90f" stroke="#22b90f"></path><path d="M1728.7 1034.4L1855.3 909.7L1695.7 881.7Z" fill="#139403" stroke="#139403"></path><path d="M714.7 895.7L832.3 1043.4L825.3 895.7Z" fill="#139403" stroke="#139403"></path><path d="M861.3 0L711.7 0L822.3 188.8Z" fill="#139403" stroke="#139403"></path><path d="M474 267.6L505 428.3L671.7 307.6Z" fill="#22b90f" stroke="#22b90f"></path><path d="M2065 577.1L1839.3 605.1L1875.3 784.9Z" fill="#26c011" stroke="#26c011"></path><path d="M2065 577.1L2032 441.3L1839.3 605.1Z" fill="#1fb10d" stroke="#1fb10d"></path><path d="M1843.3 180.8L1866.3 0L1728.7 0Z" fill="#0c8600" stroke="#0c8600"></path><path d="M832.3 1043.4L1010 1191.2L1056 1081.4Z" fill="#0f8d01" stroke="#0f8d01"></path><path d="M1056 1081.4L1010 1191.2L1174.7 1090.4Z" fill="#2ccf16" stroke="#2ccf16"></path><path d="M1174.7 1090.4L1332.3 1256.2L1393.3 1106.4Z" fill="#29c714" stroke="#29c714"></path><path d="M1393.3 1106.4L1503 1235.2L1499 1029.4Z" fill="#29c714" stroke="#29c714"></path><path d="M2055 121.8L1866.3 0L1843.3 180.8Z" fill="#1caa0a" stroke="#1caa0a"></path><path d="M1010 1191.2L1220.7 1252.2L1174.7 1090.4Z" fill="#1caa0a" stroke="#1caa0a"></path><path d="M2032 441.3L2023 285.6L1839.3 320.6Z" fill="#26c011" stroke="#26c011"></path><path d="M1220.7 1252.2L1332.3 1256.2L1174.7 1090.4Z" fill="#1caa0a" stroke="#1caa0a"></path><path d="M474 267.6L671.7 307.6L700.7 185.8Z" fill="#26c011" stroke="#26c011"></path><path d="M671.7 307.6L505 428.3L708.7 421.3Z" fill="#22b90f" stroke="#22b90f"></path><path d="M642.7 636.1L525 782.9L674.7 791.9Z" fill="#26c011" stroke="#26c011"></path><path d="M674.7 791.9L478 886.7L714.7 895.7Z" fill="#1fb10d" stroke="#1fb10d"></path><path d="M1332.3 1256.2L1503 1235.2L1393.3 1106.4Z" fill="#26c011" stroke="#26c011"></path><path d="M2076 798.9L2065 577.1L1875.3 784.9Z" fill="#0f8d01" stroke="#0f8d01"></path><path d="M2237.7 174.8L2055 121.8L2023 285.6Z" fill="#26c011" stroke="#26c011"></path><path d="M1668.7 1203.2L1838.3 1056.4L1728.7 1034.4Z" fill="#29c714" stroke="#29c714"></path><path d="M1728.7 1034.4L1838.3 1056.4L1855.3 909.7Z" fill="#0f8d01" stroke="#0f8d01"></path><path d="M2043 892.7L2076 798.9L1875.3 784.9Z" fill="#1fb10d" stroke="#1fb10d"></path><path d="M505 428.3L489 633.1L642.7 636.1Z" fill="#1fb10d" stroke="#1fb10d"></path><path d="M722.7 1182.2L866.3 1224.2L832.3 1043.4Z" fill="#1caa0a" stroke="#1caa0a"></path><path d="M489 633.1L525 782.9L642.7 636.1Z" fill="#19a307" stroke="#19a307"></path><path d="M1503 1235.2L1668.7 1203.2L1499 1029.4Z" fill="#1caa0a" stroke="#1caa0a"></path><path d="M489 124.8L474 267.6L700.7 185.8Z" fill="#1caa0a" stroke="#1caa0a"></path><path d="M505 428.3L325.3 469.3L489 633.1Z" fill="#0c8600" stroke="#0c8600"></path><path d="M832.3 1043.4L866.3 1224.2L1010 1191.2Z" fill="#0f8d01" stroke="#0f8d01"></path><path d="M1010 1191.2L1166.7 1375L1220.7 1252.2Z" fill="#0f8d01" stroke="#0f8d01"></path><path d="M676.7 1094.4L832.3 1043.4L714.7 895.7Z" fill="#2ccf16" stroke="#2ccf16"></path><path d="M2043 892.7L1875.3 784.9L1855.3 909.7Z" fill="#0f8d01" stroke="#0f8d01"></path><path d="M2201.7 438.3L2023 285.6L2032 441.3Z" fill="#2ccf16" stroke="#2ccf16"></path><path d="M2023 285.6L2055 121.8L1843.3 180.8Z" fill="#26c011" stroke="#26c011"></path><path d="M2201.7 438.3L2032 441.3L2065 577.1Z" fill="#0f8d01" stroke="#0f8d01"></path><path d="M534 1037.4L676.7 1094.4L714.7 895.7Z" fill="#19a307" stroke="#19a307"></path><path d="M2011 1030.4L2043 892.7L1855.3 909.7Z" fill="#22b90f" stroke="#22b90f"></path><path d="M2011 1030.4L1855.3 909.7L1838.3 1056.4Z" fill="#1fb10d" stroke="#1fb10d"></path><path d="M547 0L489 124.8L700.7 185.8Z" fill="#1caa0a" stroke="#1caa0a"></path><path d="M711.7 0L547 0L700.7 185.8Z" fill="#0f8d01" stroke="#0f8d01"></path><path d="M676.7 1094.4L722.7 1182.2L832.3 1043.4Z" fill="#2ccf16" stroke="#2ccf16"></path><path d="M1332.3 1256.2L1392.3 1375L1503 1235.2Z" fill="#2ccf16" stroke="#2ccf16"></path><path d="M1503 1235.2L1554 1375L1668.7 1203.2Z" fill="#29c714" stroke="#29c714"></path><path d="M1166.7 1375L1392.3 1375L1332.3 1256.2Z" fill="#139403" stroke="#139403"></path><path d="M1166.7 1375L1332.3 1256.2L1220.7 1252.2Z" fill="#0f8d01" stroke="#0f8d01"></path><path d="M983 1375L1010 1191.2L866.3 1224.2Z" fill="#1fb10d" stroke="#1fb10d"></path><path d="M983 1375L1166.7 1375L1010 1191.2Z" fill="#0f8d01" stroke="#0f8d01"></path><path d="M676.7 1094.4L486 1250.2L722.7 1182.2Z" fill="#1caa0a" stroke="#1caa0a"></path><path d="M525 782.9L478 886.7L674.7 791.9Z" fill="#1fb10d" stroke="#1fb10d"></path><path d="M309.3 779.9L478 886.7L525 782.9Z" fill="#1caa0a" stroke="#1caa0a"></path><path d="M309.3 779.9L525 782.9L489 633.1Z" fill="#0c8600" stroke="#0c8600"></path><path d="M1892.3 1205.2L2011 1030.4L1838.3 1056.4Z" fill="#19a307" stroke="#19a307"></path><path d="M2251.7 798.9L2236.7 605.1L2076 798.9Z" fill="#139403" stroke="#139403"></path><path d="M1892.3 1205.2L1838.3 1056.4L1668.7 1203.2Z" fill="#29c714" stroke="#29c714"></path><path d="M2236.7 605.1L2065 577.1L2076 798.9Z" fill="#19a307" stroke="#19a307"></path><path d="M2236.7 605.1L2201.7 438.3L2065 577.1Z" fill="#2ccf16" stroke="#2ccf16"></path><path d="M478 886.7L534 1037.4L714.7 895.7Z" fill="#0c8600" stroke="#0c8600"></path><path d="M1392.3 1375L1554 1375L1503 1235.2Z" fill="#22b90f" stroke="#22b90f"></path><path d="M838.3 1375L983 1375L866.3 1224.2Z" fill="#0f8d01" stroke="#0f8d01"></path><path d="M2195.7 0L2084 0L2055 121.8Z" fill="#1fb10d" stroke="#1fb10d"></path><path d="M2055 121.8L2084 0L1866.3 0Z" fill="#2ccf16" stroke="#2ccf16"></path><path d="M1742.7 1375L1892.3 1205.2L1668.7 1203.2Z" fill="#2ccf16" stroke="#2ccf16"></path><path d="M306.3 334.6L505 428.3L474 267.6Z" fill="#29c714" stroke="#29c714"></path><path d="M306.3 334.6L325.3 469.3L505 428.3Z" fill="#139403" stroke="#139403"></path><path d="M306.3 334.6L474 267.6L349.3 147.8Z" fill="#29c714" stroke="#29c714"></path><path d="M2251.7 798.9L2076 798.9L2226.7 929.7Z" fill="#139403" stroke="#139403"></path><path d="M2201.7 438.3L2235.7 294.6L2023 285.6Z" fill="#1caa0a" stroke="#1caa0a"></path><path d="M2390.3 421.3L2235.7 294.6L2201.7 438.3Z" fill="#29c714" stroke="#29c714"></path><path d="M325.3 469.3L311.3 607.1L489 633.1Z" fill="#29c714" stroke="#29c714"></path><path d="M478 886.7L359.3 952.7L534 1037.4Z" fill="#26c011" stroke="#26c011"></path><path d="M349.3 147.8L474 267.6L489 124.8Z" fill="#19a307" stroke="#19a307"></path><path d="M325.3 469.3L199.7 601.1L311.3 607.1Z" fill="#26c011" stroke="#26c011"></path><path d="M722.7 1182.2L838.3 1375L866.3 1224.2Z" fill="#0f8d01" stroke="#0f8d01"></path><path d="M679.7 1375L838.3 1375L722.7 1182.2Z" fill="#1fb10d" stroke="#1fb10d"></path><path d="M312.3 0L349.3 147.8L489 124.8Z" fill="#22b90f" stroke="#22b90f"></path><path d="M1554 1375L1742.7 1375L1668.7 1203.2Z" fill="#0f8d01" stroke="#0f8d01"></path><path d="M2350.3 124.8L2237.7 174.8L2235.7 294.6Z" fill="#1fb10d" stroke="#1fb10d"></path><path d="M2235.7 294.6L2237.7 174.8L2023 285.6Z" fill="#139403" stroke="#139403"></path><path d="M196.7 750.9L309.3 779.9L311.3 607.1Z" fill="#1caa0a" stroke="#1caa0a"></path><path d="M311.3 607.1L309.3 779.9L489 633.1Z" fill="#0f8d01" stroke="#0f8d01"></path><path d="M2226.7 929.7L2043 892.7L2215.7 1034.4Z" fill="#19a307" stroke="#19a307"></path><path d="M2226.7 929.7L2076 798.9L2043 892.7Z" fill="#169b05" stroke="#169b05"></path><path d="M2236.7 605.1L2390.3 421.3L2201.7 438.3Z" fill="#22b90f" stroke="#22b90f"></path><path d="M2043 892.7L2011 1030.4L2215.7 1034.4Z" fill="#29c714" stroke="#29c714"></path><path d="M309.3 779.9L359.3 952.7L478 886.7Z" fill="#0c8600" stroke="#0c8600"></path><path d="M486 1250.2L679.7 1375L722.7 1182.2Z" fill="#169b05" stroke="#169b05"></path><path d="M2237.7 174.8L2195.7 0L2055 121.8Z" fill="#1fb10d" stroke="#1fb10d"></path><path d="M2215.7 1034.4L2011 1030.4L2079 1244.2Z" fill="#1caa0a" stroke="#1caa0a"></path><path d="M1742.7 1375L1853.3 1375L1892.3 1205.2Z" fill="#0c8600" stroke="#0c8600"></path><path d="M486 1250.2L676.7 1094.4L534 1037.4Z" fill="#169b05" stroke="#169b05"></path><path d="M206.7 173.8L209.7 342.6L306.3 334.6Z" fill="#2ccf16" stroke="#2ccf16"></path><path d="M306.3 334.6L209.7 342.6L325.3 469.3Z" fill="#0f8d01" stroke="#0f8d01"></path><path d="M2079 1244.2L2011 1030.4L1892.3 1205.2Z" fill="#0f8d01" stroke="#0f8d01"></path><path d="M2427.3 792.9L2391.3 646.1L2251.7 798.9Z" fill="#19a307" stroke="#19a307"></path><path d="M547 0L312.3 0L489 124.8Z" fill="#29c714" stroke="#29c714"></path><path d="M349.3 147.8L206.7 173.8L306.3 334.6Z" fill="#1caa0a" stroke="#1caa0a"></path><path d="M160.7 458.3L199.7 601.1L325.3 469.3Z" fill="#169b05" stroke="#169b05"></path><path d="M309.3 779.9L138.7 897.7L359.3 952.7Z" fill="#26c011" stroke="#26c011"></path><path d="M1853.3 1375L2079 1244.2L1892.3 1205.2Z" fill="#22b90f" stroke="#22b90f"></path><path d="M315.3 1099.4L534 1037.4L359.3 952.7Z" fill="#0c8600" stroke="#0c8600"></path><path d="M315.3 1099.4L486 1250.2L534 1037.4Z" fill="#22b90f" stroke="#22b90f"></path><path d="M2391.3 646.1L2236.7 605.1L2251.7 798.9Z" fill="#1caa0a" stroke="#1caa0a"></path><path d="M2391.3 646.1L2390.3 421.3L2236.7 605.1Z" fill="#19a307" stroke="#19a307"></path><path d="M2237.7 174.8L2350.3 124.8L2195.7 0Z" fill="#0c8600" stroke="#0c8600"></path><path d="M199.7 601.1L196.7 750.9L311.3 607.1Z" fill="#2ccf16" stroke="#2ccf16"></path><path d="M2390.3 421.3L2390.3 341.6L2235.7 294.6Z" fill="#169b05" stroke="#169b05"></path><path d="M312.3 0L206.7 173.8L349.3 147.8Z" fill="#169b05" stroke="#169b05"></path><path d="M209.7 342.6L160.7 458.3L325.3 469.3Z" fill="#139403" stroke="#139403"></path><path d="M0 776.9L138.7 897.7L196.7 750.9Z" fill="#1fb10d" stroke="#1fb10d"></path><path d="M2359.3 915.7L2251.7 798.9L2226.7 929.7Z" fill="#169b05" stroke="#169b05"></path><path d="M2560 190.8L2350.3 124.8L2390.3 341.6Z" fill="#1fb10d" stroke="#1fb10d"></path><path d="M0 477.3L160.7 458.3L0 315.6Z" fill="#1caa0a" stroke="#1caa0a"></path><path d="M2390.3 341.6L2350.3 124.8L2235.7 294.6Z" fill="#139403" stroke="#139403"></path><path d="M175.7 1036.4L315.3 1099.4L359.3 952.7Z" fill="#0f8d01" stroke="#0f8d01"></path><path d="M2358.3 1091.4L2359.3 915.7L2215.7 1034.4Z" fill="#29c714" stroke="#29c714"></path><path d="M2215.7 1034.4L2359.3 915.7L2226.7 929.7Z" fill="#2ccf16" stroke="#2ccf16"></path><path d="M2359.3 915.7L2427.3 792.9L2251.7 798.9Z" fill="#26c011" stroke="#26c011"></path><path d="M2560 613.1L2560 428.3L2390.3 421.3Z" fill="#2ccf16" stroke="#2ccf16"></path><path d="M307.3 1375L484 1375L486 1250.2Z" fill="#29c714" stroke="#29c714"></path><path d="M486 1250.2L484 1375L679.7 1375Z" fill="#2ccf16" stroke="#2ccf16"></path><path d="M1853.3 1375L2087 1375L2079 1244.2Z" fill="#2ccf16" stroke="#2ccf16"></path><path d="M2079 1244.2L2245.7 1255.2L2215.7 1034.4Z" fill="#0f8d01" stroke="#0f8d01"></path><path d="M205.7 1192.2L303.3 1202.2L315.3 1099.4Z" fill="#0f8d01" stroke="#0f8d01"></path><path d="M315.3 1099.4L303.3 1202.2L486 1250.2Z" fill="#1caa0a" stroke="#1caa0a"></path><path d="M0 573.1L196.7 750.9L199.7 601.1Z" fill="#1caa0a" stroke="#1caa0a"></path><path d="M196.7 750.9L138.7 897.7L309.3 779.9Z" fill="#139403" stroke="#139403"></path><path d="M0 315.6L160.7 458.3L209.7 342.6Z" fill="#0c8600" stroke="#0c8600"></path><path d="M160.7 458.3L0 573.1L199.7 601.1Z" fill="#139403" stroke="#139403"></path><path d="M312.3 0L167.7 0L206.7 173.8Z" fill="#26c011" stroke="#26c011"></path><path d="M2201.7 1375L2245.7 1255.2L2079 1244.2Z" fill="#139403" stroke="#139403"></path><path d="M2560 956.7L2560 777.9L2427.3 792.9Z" fill="#19a307" stroke="#19a307"></path><path d="M2245.7 1255.2L2358.3 1091.4L2215.7 1034.4Z" fill="#169b05" stroke="#169b05"></path><path d="M138.7 897.7L175.7 1036.4L359.3 952.7Z" fill="#1caa0a" stroke="#1caa0a"></path><path d="M2560 190.8L2427.3 0L2350.3 124.8Z" fill="#2ccf16" stroke="#2ccf16"></path><path d="M2350.3 124.8L2427.3 0L2195.7 0Z" fill="#1fb10d" stroke="#1fb10d"></path><path d="M2560 428.3L2390.3 341.6L2390.3 421.3Z" fill="#19a307" stroke="#19a307"></path><path d="M2087 1375L2201.7 1375L2079 1244.2Z" fill="#1caa0a" stroke="#1caa0a"></path><path d="M2245.7 1255.2L2392.3 1248.2L2358.3 1091.4Z" fill="#169b05" stroke="#169b05"></path><path d="M2560 613.1L2391.3 646.1L2560 777.9Z" fill="#1fb10d" stroke="#1fb10d"></path><path d="M2560 613.1L2390.3 421.3L2391.3 646.1Z" fill="#1caa0a" stroke="#1caa0a"></path><path d="M0 315.6L209.7 342.6L206.7 173.8Z" fill="#1caa0a" stroke="#1caa0a"></path><path d="M138.7 897.7L0 1047.4L175.7 1036.4Z" fill="#139403" stroke="#139403"></path><path d="M2560 777.9L2391.3 646.1L2427.3 792.9Z" fill="#0f8d01" stroke="#0f8d01"></path><path d="M0 477.3L0 573.1L160.7 458.3Z" fill="#0f8d01" stroke="#0f8d01"></path><path d="M0 1185.2L205.7 1192.2L175.7 1036.4Z" fill="#1fb10d" stroke="#1fb10d"></path><path d="M175.7 1036.4L205.7 1192.2L315.3 1099.4Z" fill="#26c011" stroke="#26c011"></path><path d="M303.3 1202.2L307.3 1375L486 1250.2Z" fill="#29c714" stroke="#29c714"></path><path d="M2560 428.3L2560 297.6L2390.3 341.6Z" fill="#0f8d01" stroke="#0f8d01"></path><path d="M0 179.8L0 315.6L206.7 173.8Z" fill="#0f8d01" stroke="#0f8d01"></path><path d="M2560 956.7L2359.3 915.7L2560 1035.4Z" fill="#0c8600" stroke="#0c8600"></path><path d="M2560 956.7L2427.3 792.9L2359.3 915.7Z" fill="#169b05" stroke="#169b05"></path><path d="M2560 297.6L2560 190.8L2390.3 341.6Z" fill="#169b05" stroke="#169b05"></path><path d="M0 573.1L0 776.9L196.7 750.9Z" fill="#26c011" stroke="#26c011"></path><path d="M192.7 1375L307.3 1375L303.3 1202.2Z" fill="#1fb10d" stroke="#1fb10d"></path><path d="M167.7 0L0 179.8L206.7 173.8Z" fill="#22b90f" stroke="#22b90f"></path><path d="M2396.3 1375L2392.3 1248.2L2245.7 1255.2Z" fill="#29c714" stroke="#29c714"></path><path d="M0 776.9L0 899.7L138.7 897.7Z" fill="#19a307" stroke="#19a307"></path><path d="M205.7 1192.2L192.7 1375L303.3 1202.2Z" fill="#1caa0a" stroke="#1caa0a"></path><path d="M2560 1035.4L2359.3 915.7L2358.3 1091.4Z" fill="#29c714" stroke="#29c714"></path><path d="M2560 190.8L2560 0L2427.3 0Z" fill="#139403" stroke="#139403"></path><path d="M167.7 0L0 0L0 179.8Z" fill="#139403" stroke="#139403"></path><path d="M2560 1240.2L2560 1035.4L2358.3 1091.4Z" fill="#0f8d01" stroke="#0f8d01"></path><path d="M0 899.7L0 1047.4L138.7 897.7Z" fill="#139403" stroke="#139403"></path><path d="M0 1185.2L192.7 1375L205.7 1192.2Z" fill="#22b90f" stroke="#22b90f"></path><path d="M2201.7 1375L2396.3 1375L2245.7 1255.2Z" fill="#0c8600" stroke="#0c8600"></path><path d="M2392.3 1248.2L2560 1240.2L2358.3 1091.4Z" fill="#1fb10d" stroke="#1fb10d"></path><path d="M0 1047.4L0 1185.2L175.7 1036.4Z" fill="#139403" stroke="#139403"></path><path d="M2560 1375L2560 1240.2L2392.3 1248.2Z" fill="#1caa0a" stroke="#1caa0a"></path><path d="M2396.3 1375L2560 1375L2392.3 1248.2Z" fill="#139403" stroke="#139403"></path><path d="M0 1185.2L0 1375L192.7 1375Z" fill="#29c714" stroke="#29c714"></path></g></svg>