<svg id="visual" viewBox="0 0 540 960" width="540" height="960" xmlns="http://www.w3.org/2000/svg" xmlns:xlink="http://www.w3.org/1999/xlink" version="1.1"><rect width="540" height="960" fill="#0c8600"></rect><g><g transform="translate(402 930)"><path d="M0 -44.8L42.6 -13.9L26.3 36.3L-26.3 36.3L-42.6 -13.9Z" fill="#2ccf16"></path></g><g transform="translate(175 713)"><path d="M0 -11L10.5 -3.4L6.5 8.9L-6.5 8.9L-10.5 -3.4Z" fill="#2ccf16"></path></g><g transform="translate(75 419)"><path d="M0 -12L11.4 -3.7L7.1 9.7L-7.1 9.7L-11.4 -3.7Z" fill="#2ccf16"></path></g><g transform="translate(516 156)"><path d="M0 -41L39 -12.7L24.1 33.2L-24.1 33.2L-39 -12.7Z" fill="#2ccf16"></path></g><g transform="translate(519 50)"><path d="M0 -8L7.6 -2.5L4.7 6.5L-4.7 6.5L-7.6 -2.5Z" fill="#2ccf16"></path></g><g transform="translate(275 800)"><path d="M0 -34L32.3 -10.5L20 27.5L-20 27.5L-32.3 -10.5Z" fill="#2ccf16"></path></g><g transform="translate(194 532)"><path d="M0 -25L23.8 -7.7L14.7 20.2L-14.7 20.2L-23.8 -7.7Z" fill="#2ccf16"></path></g><g transform="translate(3 539)"><path d="M0 -23L21.9 -7.1L13.5 18.6L-13.5 18.6L-21.9 -7.1Z" fill="#2ccf16"></path></g><g transform="translate(134 45)"><path d="M0 -43L40.9 -13.3L25.3 34.8L-25.3 34.8L-40.9 -13.3Z" fill="#2ccf16"></path></g><g transform="translate(376 138)"><path d="M0 -12L11.4 -3.7L7.1 9.7L-7.1 9.7L-11.4 -3.7Z" fill="#2ccf16"></path></g><g transform="translate(282 129)"><path d="M0 -19L18.1 -5.9L11.2 15.4L-11.2 15.4L-18.1 -5.9Z" fill="#2ccf16"></path></g><g transform="translate(261 942)"><path d="M0 -7L6.7 -2.2L4.1 5.7L-4.1 5.7L-6.7 -2.2Z" fill="#2ccf16"></path></g><g transform="translate(257 438)"><path d="M0 -25L23.8 -7.7L14.7 20.2L-14.7 20.2L-23.8 -7.7Z" fill="#2ccf16"></path></g><g transform="translate(449 302)"><path d="M0 -43L40.9 -13.3L25.3 34.8L-25.3 34.8L-40.9 -13.3Z" fill="#2ccf16"></path></g><g transform="translate(537 879)"><path d="M0 -30L28.5 -9.3L17.6 24.3L-17.6 24.3L-28.5 -9.3Z" fill="#2ccf16"></path></g><g transform="translate(358 726)"><path d="M0 -24L22.8 -7.4L14.1 19.4L-14.1 19.4L-22.8 -7.4Z" fill="#2ccf16"></path></g><g transform="translate(154 938)"><path d="M0 -27L25.7 -8.3L15.9 21.8L-15.9 21.8L-25.7 -8.3Z" fill="#2ccf16"></path></g><g transform="translate(321 538)"><path d="M0 -17L16.2 -5.3L10 13.8L-10 13.8L-16.2 -5.3Z" fill="#2ccf16"></path></g><g transform="translate(443 555)"><path d="M0 -12L11.4 -3.7L7.1 9.7L-7.1 9.7L-11.4 -3.7Z" fill="#2ccf16"></path></g><g transform="translate(63 288)"><path d="M0 -28L26.6 -8.7L16.5 22.7L-16.5 22.7L-26.6 -8.7Z" fill="#2ccf16"></path></g><g transform="translate(248 609)"><path d="M0 -20L19 -6.2L11.8 16.2L-11.8 16.2L-19 -6.2Z" fill="#2ccf16"></path></g><g transform="translate(161 207)"><path d="M0 -22L20.9 -6.8L12.9 17.8L-12.9 17.8L-20.9 -6.8Z" fill="#2ccf16"></path></g><g transform="translate(79 803)"><path d="M0 -23L21.9 -7.1L13.5 18.6L-13.5 18.6L-21.9 -7.1Z" fill="#2ccf16"></path></g><g transform="translate(533 771)"><path d="M0 -34L32.3 -10.5L20 27.5L-20 27.5L-32.3 -10.5Z" fill="#2ccf16"></path></g><g transform="translate(269 14)"><path d="M0 -26L24.7 -8L15.3 21L-15.3 21L-24.7 -8Z" fill="#2ccf16"></path></g><g transform="translate(347 453)"><path d="M0 -10L9.5 -3.1L5.9 8.1L-5.9 8.1L-9.5 -3.1Z" fill="#2ccf16"></path></g><g transform="translate(9 27)"><path d="M0 -14L13.3 -4.3L8.2 11.3L-8.2 11.3L-13.3 -4.3Z" fill="#2ccf16"></path></g><g transform="translate(152 355)"><path d="M0 -27L25.7 -8.3L15.9 21.8L-15.9 21.8L-25.7 -8.3Z" fill="#2ccf16"></path></g><g transform="translate(464 428)"><path d="M0 -17L16.2 -5.3L10 13.8L-10 13.8L-16.2 -5.3Z" fill="#2ccf16"></path></g><g transform="translate(496 646)"><path d="M0 -12L11.4 -3.7L7.1 9.7L-7.1 9.7L-11.4 -3.7Z" fill="#2ccf16"></path></g><g transform="translate(9 659)"><path d="M0 -8L7.6 -2.5L4.7 6.5L-4.7 6.5L-7.6 -2.5Z" fill="#2ccf16"></path></g><g transform="translate(9 216)"><path d="M0 -43L40.9 -13.3L25.3 34.8L-25.3 34.8L-40.9 -13.3Z" fill="#2ccf16"></path></g></g></svg>