<svg id="visual" viewBox="0 0 540 960" width="540" height="960" xmlns="http://www.w3.org/2000/svg" xmlns:xlink="http://www.w3.org/1999/xlink" version="1.1"><g stroke-width="1" stroke-linejoin="bevel"><path d="M323 449.7L357 511.3L392 510.3Z" fill="#1fb10d" stroke="#1fb10d"></path><path d="M392 510.3L446 413.7L323 449.7Z" fill="#19a307" stroke="#19a307"></path><path d="M446 413.7L416 350L323 449.7Z" fill="#0c8600" stroke="#0c8600"></path><path d="M416 350L337 335L323 449.7Z" fill="#1fb10d" stroke="#1fb10d"></path><path d="M337 335L204 423.7L323 449.7Z" fill="#139403" stroke="#139403"></path><path d="M178 535.3L253 613L357 511.3Z" fill="#0f8d01" stroke="#0f8d01"></path><path d="M540 530.3L540 414.7L446 413.7Z" fill="#169b05" stroke="#169b05"></path><path d="M446 413.7L540 308L416 350Z" fill="#26c011" stroke="#26c011"></path><path d="M253 613L355 636L357 511.3Z" fill="#19a307" stroke="#19a307"></path><path d="M357 511.3L355 636L392 510.3Z" fill="#0f8d01" stroke="#0f8d01"></path><path d="M392 510.3L540 530.3L446 413.7Z" fill="#22b90f" stroke="#22b90f"></path><path d="M423 663L540 530.3L392 510.3Z" fill="#1fb10d" stroke="#1fb10d"></path><path d="M178 535.3L357 511.3L323 449.7Z" fill="#29c714" stroke="#29c714"></path><path d="M308 742.7L423 663L355 636Z" fill="#0c8600" stroke="#0c8600"></path><path d="M355 636L423 663L392 510.3Z" fill="#26c011" stroke="#26c011"></path><path d="M204 423.7L178 535.3L323 449.7Z" fill="#19a307" stroke="#19a307"></path><path d="M540 414.7L540 308L446 413.7Z" fill="#1fb10d" stroke="#1fb10d"></path><path d="M394 186.3L298 214.3L337 335Z" fill="#29c714" stroke="#29c714"></path><path d="M337 335L199 307L204 423.7Z" fill="#22b90f" stroke="#22b90f"></path><path d="M204 423.7L119 456.7L178 535.3Z" fill="#0f8d01" stroke="#0f8d01"></path><path d="M298 214.3L199 307L337 335Z" fill="#22b90f" stroke="#22b90f"></path><path d="M423 663L540 652L540 530.3Z" fill="#29c714" stroke="#29c714"></path><path d="M92 331L119 456.7L204 423.7Z" fill="#139403" stroke="#139403"></path><path d="M394 186.3L337 335L416 350Z" fill="#19a307" stroke="#19a307"></path><path d="M119 456.7L128 566.3L178 535.3Z" fill="#169b05" stroke="#169b05"></path><path d="M178 535.3L124 630L253 613Z" fill="#1caa0a" stroke="#1caa0a"></path><path d="M540 222.3L394 186.3L416 350Z" fill="#29c714" stroke="#29c714"></path><path d="M124 630L238 706.7L253 613Z" fill="#29c714" stroke="#29c714"></path><path d="M253 613L238 706.7L355 636Z" fill="#22b90f" stroke="#22b90f"></path><path d="M423 663L540 753.7L540 652Z" fill="#26c011" stroke="#26c011"></path><path d="M225 69.7L230 213.3L298 214.3Z" fill="#29c714" stroke="#29c714"></path><path d="M298 214.3L230 213.3L199 307Z" fill="#1caa0a" stroke="#1caa0a"></path><path d="M199 307L92 331L204 423.7Z" fill="#19a307" stroke="#19a307"></path><path d="M238 706.7L308 742.7L355 636Z" fill="#26c011" stroke="#26c011"></path><path d="M540 308L540 222.3L416 350Z" fill="#19a307" stroke="#19a307"></path><path d="M0 561.3L124 630L128 566.3Z" fill="#139403" stroke="#139403"></path><path d="M128 566.3L124 630L178 535.3Z" fill="#139403" stroke="#139403"></path><path d="M75 194.3L92 331L199 307Z" fill="#1fb10d" stroke="#1fb10d"></path><path d="M119 456.7L0 561.3L128 566.3Z" fill="#1caa0a" stroke="#1caa0a"></path><path d="M308 742.7L445 766.7L423 663Z" fill="#169b05" stroke="#169b05"></path><path d="M445 766.7L540 753.7L423 663Z" fill="#19a307" stroke="#19a307"></path><path d="M540 222.3L464 113.7L394 186.3Z" fill="#22b90f" stroke="#22b90f"></path><path d="M394 186.3L326 74.7L298 214.3Z" fill="#29c714" stroke="#29c714"></path><path d="M0 286L0 390.7L92 331Z" fill="#22b90f" stroke="#22b90f"></path><path d="M92 331L0 390.7L119 456.7Z" fill="#169b05" stroke="#169b05"></path><path d="M0 390.7L0 561.3L119 456.7Z" fill="#169b05" stroke="#169b05"></path><path d="M68 740.7L211 816.3L238 706.7Z" fill="#1caa0a" stroke="#1caa0a"></path><path d="M238 706.7L211 816.3L308 742.7Z" fill="#1caa0a" stroke="#1caa0a"></path><path d="M360 881.3L442 864.3L445 766.7Z" fill="#0c8600" stroke="#0c8600"></path><path d="M445 766.7L540 860.3L540 753.7Z" fill="#19a307" stroke="#19a307"></path><path d="M68 740.7L238 706.7L124 630Z" fill="#0c8600" stroke="#0c8600"></path><path d="M464 113.7L326 74.7L394 186.3Z" fill="#1caa0a" stroke="#1caa0a"></path><path d="M230 213.3L75 194.3L199 307Z" fill="#22b90f" stroke="#22b90f"></path><path d="M111 68.7L75 194.3L230 213.3Z" fill="#0f8d01" stroke="#0f8d01"></path><path d="M540 222.3L540 96.7L464 113.7Z" fill="#0c8600" stroke="#0c8600"></path><path d="M409 0L352 0L326 74.7Z" fill="#169b05" stroke="#169b05"></path><path d="M360 881.3L445 766.7L308 742.7Z" fill="#1caa0a" stroke="#1caa0a"></path><path d="M75 194.3L0 286L92 331Z" fill="#0f8d01" stroke="#0f8d01"></path><path d="M0 646L68 740.7L124 630Z" fill="#29c714" stroke="#29c714"></path><path d="M0 561.3L0 646L124 630Z" fill="#19a307" stroke="#19a307"></path><path d="M211 816.3L360 881.3L308 742.7Z" fill="#0f8d01" stroke="#0f8d01"></path><path d="M326 74.7L225 69.7L298 214.3Z" fill="#19a307" stroke="#19a307"></path><path d="M451 960L540 860.3L442 864.3Z" fill="#2ccf16" stroke="#2ccf16"></path><path d="M442 864.3L540 860.3L445 766.7Z" fill="#0f8d01" stroke="#0f8d01"></path><path d="M0 95.7L0 234.3L75 194.3Z" fill="#0c8600" stroke="#0c8600"></path><path d="M75 194.3L0 234.3L0 286Z" fill="#139403" stroke="#139403"></path><path d="M326 74.7L228 0L225 69.7Z" fill="#1fb10d" stroke="#1fb10d"></path><path d="M409 0L326 74.7L464 113.7Z" fill="#1caa0a" stroke="#1caa0a"></path><path d="M540 0L409 0L464 113.7Z" fill="#169b05" stroke="#169b05"></path><path d="M228 0L111 68.7L225 69.7Z" fill="#22b90f" stroke="#22b90f"></path><path d="M225 69.7L111 68.7L230 213.3Z" fill="#0c8600" stroke="#0c8600"></path><path d="M191 960L359 960L360 881.3Z" fill="#26c011" stroke="#26c011"></path><path d="M68 740.7L97 850.3L211 816.3Z" fill="#29c714" stroke="#29c714"></path><path d="M0 830.3L97 850.3L68 740.7Z" fill="#22b90f" stroke="#22b90f"></path><path d="M352 0L228 0L326 74.7Z" fill="#1fb10d" stroke="#1fb10d"></path><path d="M0 646L0 773.7L68 740.7Z" fill="#22b90f" stroke="#22b90f"></path><path d="M540 96.7L540 0L464 113.7Z" fill="#139403" stroke="#139403"></path><path d="M191 960L360 881.3L211 816.3Z" fill="#19a307" stroke="#19a307"></path><path d="M360 881.3L451 960L442 864.3Z" fill="#2ccf16" stroke="#2ccf16"></path><path d="M359 960L451 960L360 881.3Z" fill="#0c8600" stroke="#0c8600"></path><path d="M111 68.7L0 95.7L75 194.3Z" fill="#26c011" stroke="#26c011"></path><path d="M84 0L0 95.7L111 68.7Z" fill="#22b90f" stroke="#22b90f"></path><path d="M0 773.7L0 830.3L68 740.7Z" fill="#0f8d01" stroke="#0f8d01"></path><path d="M97 850.3L191 960L211 816.3Z" fill="#1fb10d" stroke="#1fb10d"></path><path d="M451 960L540 960L540 860.3Z" fill="#1fb10d" stroke="#1fb10d"></path><path d="M124 960L191 960L97 850.3Z" fill="#19a307" stroke="#19a307"></path><path d="M228 0L84 0L111 68.7Z" fill="#0c8600" stroke="#0c8600"></path><path d="M0 960L124 960L97 850.3Z" fill="#1fb10d" stroke="#1fb10d"></path><path d="M84 0L0 0L0 95.7Z" fill="#2ccf16" stroke="#2ccf16"></path><path d="M0 830.3L0 960L97 850.3Z" fill="#26c011" stroke="#26c011"></path></g></svg>